<svg width="410" height="410" viewBox="0 0 410 410" fill="none" xmlns="http://www.w3.org/2000/svg">
<circle cx="205" cy="205" r="205" fill="url(#paint0_linear)"/>
<circle cx="205" cy="205" r="183" fill="#161932"/>
<path d="M64.536 110.102C66.2387 107.586 69.6582 106.927 72.1737 108.63C74.6892 110.333 75.3481 113.752 73.6454 116.268C56.048 142.265 46.5 172.913 46.5 205C46.5 292.537 117.463 363.5 205 363.5C292.537 363.5 363.5 292.537 363.5 205C363.5 117.463 292.537 46.5 205 46.5C201.962 46.5 199.5 44.0376 199.5 41C199.5 37.9624 201.962 35.5 205 35.5C298.612 35.5 374.5 111.388 374.5 205C374.5 298.612 298.612 374.5 205 374.5C111.388 374.5 35.5 298.612 35.5 205C35.5 170.698 45.716 137.905 64.536 110.102Z" fill="#F87070"/>
<path d="M267.512 203.181C267.512 223.526 262.873 239.842 253.596 252.131C244.4 264.338 231.949 270.441 216.242 270.441C202.896 270.441 192.113 265.803 183.894 256.525V318.781H148.615V135.92H181.33L182.551 148.859C191.096 138.605 202.245 133.479 215.998 133.479C232.274 133.479 244.929 139.501 253.962 151.545C262.995 163.589 267.512 180.191 267.512 201.35V203.181ZM232.233 200.617C232.233 188.329 230.036 178.848 225.642 172.175C221.328 165.502 215.021 162.165 206.721 162.165C195.653 162.165 188.044 166.397 183.894 174.86V228.938C188.207 237.645 195.897 241.999 206.965 241.999C223.811 241.999 232.233 228.205 232.233 200.617Z" fill="#D7E0FF"/>
<defs>
<linearGradient id="paint0_linear" x1="615" y1="205" x2="205" y2="-205" gradientUnits="userSpaceOnUse">
<stop stop-color="#2E325A"/>
<stop offset="1" stop-color="#0E112A"/>
</linearGradient>
</defs>
</svg>
